# xmcd
#
# Track frame offsets:
#	150
#	5230
#	13002
#	24471
#	35313
#	51468
#	61816
#
# Disc length: 1072 seconds
#
# Revision: 0
# Processed by: cddbd v1.5.2PL0 Copyright (c) Steve Scherf et al.
# Submitted via: EZCDAudioConverter 1.3.4.1
#
DISCID=54042e07
DTITLE=Maze Of Torment - Death Metal As Fuck
DYEAR=2012
DGENRE=Death Metal
TTITLE0=Reduce To Ashes
TTITLE1=Eternal Horror
TTITLE2=Espectros Retorcidos
TTITLE3=Death Metal As Fuck
TTITLE4=Morbid Fate (Sadistic Intent Cover)
TTITLE5=Raid The Convent (Nunslaughter Cover)
TTITLE6=Repudiated Faith (Abhorer Cover)
EXTD=
EXTT0=
EXTT1=
EXTT2=
EXTT3=
EXTT4=
EXTT5=
EXTT6=
PLAYORDER=
